<?xml version="1.0" encoding="utf-8"?>
<!-- Generator: Adobe Illustrator 16.0.0, SVG Export Plug-In . SVG Version: 6.00 Build 0)  -->
<!DOCTYPE svg PUBLIC "-//W3C//DTD SVG 1.1//EN" "http://www.w3.org/Graphics/SVG/1.1/DTD/svg11.dtd">
<svg version="1.1" id="Layer_1" xmlns="http://www.w3.org/2000/svg" xmlns:xlink="http://www.w3.org/1999/xlink" x="0px" y="0px"
	 width="50px" height="50px" viewBox="0 0 50 50" enable-background="new 0 0 50 50" xml:space="preserve">
<linearGradient id="program_7_" gradientUnits="userSpaceOnUse" x1="0.167" y1="25" x2="50.3675" y2="25">
	<stop  offset="0" style="stop-color:#5A8FB3"/>
	<stop  offset="0.2308" style="stop-color:#5996B3"/>
	<stop  offset="0.5623" style="stop-color:#57A9B3"/>
	<stop  offset="0.953" style="stop-color:#53C8B4"/>
	<stop  offset="1" style="stop-color:#52CCB4"/>
</linearGradient>
<path id="program_129_" fill="url(#program_7_)" d="M25,0C11.237,0,0.041,11.214,0.041,25S11.237,50,25,50s24.959-11.214,24.959-25
	S38.763,0,25,0z M45.211,12.323c-1.04,0.197-3.489,0.584-7.874,0.872c-0.624-2.086-1.413-4.021-2.362-5.748
	c-1.424-2.596-3.117-4.556-4.967-5.812C36.396,3.006,41.843,6.948,45.211,12.323z M25.275,14.656c4.621-0.005,8.324-0.13,11.246-0.3
	c0.842,3.124,1.324,6.634,1.349,10.342H25.275V14.656z M25.275,13.554V1.111c4.688,0.182,8.764,5.039,10.936,12.153
	C33.341,13.429,29.734,13.549,25.275,13.554z M24.172,13.552c-4.193-0.01-7.622-0.117-10.386-0.272
	C15.87,6.438,19.715,1.682,24.172,1.153V13.552z M24.172,14.656v10.042H12.13c0.024-3.704,0.505-7.207,1.343-10.326
	C16.296,14.53,19.822,14.645,24.172,14.656z M11.027,24.698H1.148c0.052-4.1,1.139-7.958,3.013-11.318
	c1.01,0.204,3.513,0.622,8.19,0.927C11.507,17.517,11.053,21.046,11.027,24.698z M11.035,25.803
	c0.062,3.717,0.576,7.292,1.492,10.524c-3.805,0.291-7.013,0.603-8.125,0.715c-1.941-3.322-3.107-7.15-3.242-11.239H11.035z
	 M12.137,25.803h12.035v9.932c-3.152,0.028-7.021,0.251-10.527,0.51C12.742,33.111,12.203,29.566,12.137,25.803z M24.172,36.837
	v12.01c-4.326-0.512-8.08-5.008-10.201-11.53C17.389,37.074,21.121,36.865,24.172,36.837z M25.275,36.835
	c3.18,0.016,7.148,0.234,10.75,0.488c-2.212,6.792-6.193,11.391-10.75,11.567V36.835z M25.275,35.73v-9.928h12.59
	c-0.067,3.766-0.607,7.314-1.512,10.448C32.662,35.983,28.557,35.749,25.275,35.73z M38.963,25.803h9.877
	c-0.135,4.089-1.299,7.917-3.242,11.239c-1.11-0.109-4.313-0.419-8.127-0.709C38.387,33.099,38.9,29.521,38.963,25.803z
	 M38.971,24.698c-0.023-3.661-0.479-7.195-1.328-10.41c4.944-0.332,7.382-0.786,8.168-0.958c1.891,3.37,2.99,7.244,3.041,11.368
	H38.971z M19.992,1.635c-1.854,1.257-3.545,3.217-4.967,5.812c-0.951,1.731-1.744,3.674-2.367,5.769
	c-4.232-0.271-6.717-0.634-7.899-0.849C8.129,6.971,13.588,3.012,19.992,1.635z M5.033,38.062c1.443-0.139,4.406-0.411,7.815-0.667
	c0.593,1.862,1.317,3.596,2.177,5.157c1.424,2.596,3.117,4.554,4.967,5.814C13.758,47.027,8.42,43.24,5.033,38.062z M30.008,48.367
	c1.85-1.261,3.543-3.219,4.967-5.814c0.857-1.559,1.582-3.292,2.176-5.148c3.416,0.251,6.374,0.52,7.816,0.659
	C41.58,43.24,36.242,47.027,30.008,48.367z"/>
</svg>
