<?xml version="1.0" encoding="utf-8"?>
<!-- Generator: Adobe Illustrator 16.0.0, SVG Export Plug-In . SVG Version: 6.00 Build 0)  -->
<!DOCTYPE svg PUBLIC "-//W3C//DTD SVG 1.1//EN" "http://www.w3.org/Graphics/SVG/1.1/DTD/svg11.dtd">
<svg version="1.1" id="Layer_1" xmlns="http://www.w3.org/2000/svg" xmlns:xlink="http://www.w3.org/1999/xlink" x="0px" y="0px"
	 width="70px" height="70px" viewBox="-10 -10 70 70" enable-background="new -10 -10 70 70" xml:space="preserve">
<rect id="bg" x="-10" y="-10" fill="#EEEEEE" width="70" height="70"/>
<path id="inner" fill="#FFFFFF" d="M43.369,35.641c-1.594-2.485-3.949-3.154-6.44-3.862c-1.921-0.547-3.908-1.11-5.396-2.602
	c-1.823-1.821-0.982-2.866,0.179-4.314c1.258-1.564,3.158-3.932,3.754-9.126c0.445-3.893-0.511-7.482-2.623-9.852
	c-1.861-2.086-4.5-3.143-7.844-3.143c-3.341,0-5.978,1.057-7.839,3.143c-2.115,2.371-3.072,5.965-2.626,9.861
	c0.596,5.193,2.497,7.563,3.754,9.134c1.161,1.45,2.002,2.498,0.18,4.32c-1.492,1.49-3.479,2.051-5.401,2.593
	c-2.49,0.7-4.841,1.364-6.437,3.849c-0.996,1.554-1.256,4.81-1.304,5.618h39.347C44.623,40.45,44.365,37.193,43.369,35.641z"/>
<linearGradient id="outline_1_" gradientUnits="userSpaceOnUse" x1="-199.4575" y1="36.999" x2="-158.1021" y2="36.999" gradientTransform="matrix(1 0 0 -1 204 59)">
	<stop  offset="0" style="stop-color:#5A8FB3"/>
	<stop  offset="0.2308" style="stop-color:#5996B3"/>
	<stop  offset="0.5623" style="stop-color:#57A9B3"/>
	<stop  offset="0.953" style="stop-color:#53C8B4"/>
	<stop  offset="1" style="stop-color:#52CCB4"/>
</linearGradient>
<path id="outline" fill="url(#outline_1_)" d="M37.179,30.901c-1.894-0.538-3.682-1.046-5.003-2.367
	c-1.243-1.246-0.899-1.675,0.246-3.102c1.321-1.647,3.321-4.138,3.947-9.594c0.475-4.15-0.563-7.998-2.848-10.559
	C31.509,3.022,28.562,1.83,25,1.83c-3.562,0-6.507,1.192-8.52,3.45c-2.288,2.562-3.327,6.414-2.852,10.567
	c0.625,5.455,2.623,7.949,3.947,9.6c1.148,1.432,1.493,1.863,0.249,3.107c-1.322,1.322-3.11,1.827-5.004,2.36
	c-2.545,0.716-5.175,1.458-6.956,4.233c-1.271,1.981-1.452,6.087-1.459,6.26c-0.008,0.201,0.072,0.412,0.216,0.562
	c0.127,0.131,0.288,0.203,0.458,0.203h39.844c0.169,0,0.331-0.072,0.456-0.203c0.145-0.149,0.225-0.36,0.217-0.562
	c-0.008-0.173-0.189-4.276-1.458-6.258C42.354,32.373,39.723,31.627,37.179,30.901z M5.325,41.26L5.325,41.26L5.325,41.26
	c0.048-0.81,0.308-4.065,1.304-5.619c1.595-2.484,3.946-3.148,6.437-3.849c1.922-0.542,3.909-1.103,5.401-2.593
	c1.822-1.822,0.98-2.87-0.18-4.32c-1.258-1.57-3.159-3.941-3.754-9.134c-0.445-3.896,0.512-7.49,2.626-9.861
	c1.862-2.086,4.499-3.143,7.839-3.143c3.344,0,5.982,1.057,7.844,3.143c2.112,2.369,3.068,5.958,2.623,9.852
	c-0.596,5.194-2.496,7.562-3.754,9.126c-1.161,1.448-2.002,2.493-0.179,4.314c1.488,1.491,3.476,2.055,5.396,2.602
	c2.491,0.708,4.847,1.377,6.44,3.862c0.996,1.553,1.254,4.81,1.303,5.618L5.325,41.26L5.325,41.26z"/>
</svg>
